<mxfile host="app.diagrams.net" modified="2021-07-01T00:01:03.060Z" agent="5.0 (Windows NT 10.0; Win64; x64) AppleWebKit/537.36 (KHTML, like Gecko) Chrome/91.0.4472.124 Safari/537.36" etag="ABNyrqv-B_gZfb8o3rid" version="14.6.0" type="github">
  <diagram id="prtHgNgQTEPvFCAcTncT" name="Page-1">
    <mxGraphModel dx="1422" dy="794" grid="0" gridSize="10" guides="1" tooltips="1" connect="1" arrows="1" fold="1" page="1" pageScale="1" pageWidth="1654" pageHeight="2336" background="#ffffff" math="0" shadow="0">
      <root>
        <mxCell id="0" />
        <mxCell id="1" parent="0" />
        <mxCell id="dxcnD2SvZWiTtUMQ6UVI-39" value="Onboarding" style="swimlane;html=1;childLayout=stackLayout;resizeParent=1;resizeParentMax=0;startSize=20;horizontal=0;horizontalStack=1;fillColor=#b0e3e6;strokeColor=#0e8088;fontSize=18;" vertex="1" parent="1">
          <mxGeometry x="62" y="70" width="987" height="720" as="geometry" />
        </mxCell>
        <mxCell id="dxcnD2SvZWiTtUMQ6UVI-40" value="HRC" style="swimlane;html=1;startSize=20;fillColor=#f8cecc;strokeColor=#b85450;fontSize=18;" vertex="1" parent="dxcnD2SvZWiTtUMQ6UVI-39">
          <mxGeometry x="20" width="120" height="720" as="geometry" />
        </mxCell>
        <mxCell id="dxcnD2SvZWiTtUMQ6UVI-51" value="Create positions" style="ellipse;shape=doubleEllipse;whiteSpace=wrap;html=1;fontSize=12;" vertex="1" parent="dxcnD2SvZWiTtUMQ6UVI-40">
          <mxGeometry x="10" y="39" width="100" height="60" as="geometry" />
        </mxCell>
        <mxCell id="dxcnD2SvZWiTtUMQ6UVI-41" value="SnapHire" style="swimlane;html=1;startSize=20;fillColor=#d5e8d4;strokeColor=#82b366;fontSize=18;" vertex="1" parent="dxcnD2SvZWiTtUMQ6UVI-39">
          <mxGeometry x="140" width="120" height="720" as="geometry" />
        </mxCell>
        <mxCell id="dxcnD2SvZWiTtUMQ6UVI-54" value="Create Candidate" style="rounded=1;whiteSpace=wrap;html=1;fontSize=12;" vertex="1" parent="dxcnD2SvZWiTtUMQ6UVI-41">
          <mxGeometry x="15" y="114" width="90" height="41" as="geometry" />
        </mxCell>
        <mxCell id="dxcnD2SvZWiTtUMQ6UVI-42" value="TechOne" style="swimlane;html=1;startSize=20;fillColor=#dae8fc;strokeColor=#6c8ebf;fontSize=18;" vertex="1" parent="dxcnD2SvZWiTtUMQ6UVI-39">
          <mxGeometry x="260" width="115" height="720" as="geometry" />
        </mxCell>
        <mxCell id="dxcnD2SvZWiTtUMQ6UVI-52" value="Position detail" style="rounded=1;whiteSpace=wrap;html=1;fontSize=12;" vertex="1" parent="dxcnD2SvZWiTtUMQ6UVI-42">
          <mxGeometry x="12.5" y="48.5" width="90" height="41" as="geometry" />
        </mxCell>
        <mxCell id="dxcnD2SvZWiTtUMQ6UVI-53" style="edgeStyle=orthogonalEdgeStyle;rounded=0;orthogonalLoop=1;jettySize=auto;html=1;fontSize=12;" edge="1" parent="dxcnD2SvZWiTtUMQ6UVI-39" source="dxcnD2SvZWiTtUMQ6UVI-51" target="dxcnD2SvZWiTtUMQ6UVI-52">
          <mxGeometry relative="1" as="geometry" />
        </mxCell>
        <mxCell id="dxcnD2SvZWiTtUMQ6UVI-55" style="edgeStyle=orthogonalEdgeStyle;rounded=0;orthogonalLoop=1;jettySize=auto;html=1;fontSize=12;exitX=0.5;exitY=1;exitDx=0;exitDy=0;" edge="1" parent="dxcnD2SvZWiTtUMQ6UVI-39" source="dxcnD2SvZWiTtUMQ6UVI-51">
          <mxGeometry relative="1" as="geometry">
            <mxPoint x="155" y="135" as="targetPoint" />
            <Array as="points">
              <mxPoint x="80" y="135" />
              <mxPoint x="155" y="135" />
            </Array>
          </mxGeometry>
        </mxCell>
        <mxCell id="dxcnD2SvZWiTtUMQ6UVI-56" value="iAgent" style="swimlane;startSize=20;fontSize=12;fillColor=#d0cee2;strokeColor=#56517e;" vertex="1" parent="dxcnD2SvZWiTtUMQ6UVI-39">
          <mxGeometry x="375" width="120" height="720" as="geometry" />
        </mxCell>
        <mxCell id="dxcnD2SvZWiTtUMQ6UVI-57" value="ARIP" style="swimlane;startSize=20;fontSize=12;fillColor=#b0e3e6;strokeColor=#0e8088;" vertex="1" parent="dxcnD2SvZWiTtUMQ6UVI-39">
          <mxGeometry x="495" width="120" height="720" as="geometry" />
        </mxCell>
        <mxCell id="dxcnD2SvZWiTtUMQ6UVI-47" value="IMS" style="swimlane;startSize=20;fillColor=#fff2cc;strokeColor=#d6b656;fontSize=18;" vertex="1" parent="dxcnD2SvZWiTtUMQ6UVI-39">
          <mxGeometry x="615" width="132" height="720" as="geometry" />
        </mxCell>
        <mxCell id="dxcnD2SvZWiTtUMQ6UVI-48" value="MidServer" style="swimlane;startSize=20;fillColor=#0050ef;strokeColor=#001DBC;fontColor=#ffffff;fontSize=18;" vertex="1" parent="dxcnD2SvZWiTtUMQ6UVI-39">
          <mxGeometry x="747" width="120" height="720" as="geometry" />
        </mxCell>
        <mxCell id="dxcnD2SvZWiTtUMQ6UVI-49" value="ServiceNow" style="swimlane;startSize=20;fillColor=#008a00;strokeColor=#005700;fontColor=#ffffff;fontSize=18;" vertex="1" parent="dxcnD2SvZWiTtUMQ6UVI-39">
          <mxGeometry x="867" width="120" height="720" as="geometry" />
        </mxCell>
      </root>
    </mxGraphModel>
  </diagram>
</mxfile>
